<svg width="256" height="228" viewBox="0 0 256 228" fill="none" xmlns="http://www.w3.org/2000/svg">
<path d="M239.807 0.00168593C234.922 0.00168593 230.551 2.27241 227.583 5.85009H145.16V197.846C141.741 200.952 139.565 205.521 139.565 210.627C139.565 219.977 146.815 227.556 155.759 227.556C164.703 227.556 171.952 219.977 171.952 210.627C171.952 205.521 169.78 200.952 166.361 197.849V28.0095H227.583C230.551 31.5838 234.922 33.8579 239.807 33.8579C248.751 33.8579 256 26.2796 256 16.9298C256 7.57999 248.751 0.00168593 239.807 0.00168593Z" fill="#0D3050"/>
<path d="M108.721 193.698C108.333 193.698 107.955 193.732 107.577 193.76L68.5343 152.946C97.4988 143.163 118.507 114.704 118.507 81.212C118.507 39.6561 86.167 5.84838 46.4147 5.84838H28.4172C25.4492 2.27416 21.0783 -2.305e-05 16.1934 -2.305e-05C7.2494 -2.305e-05 0 7.57829 0 16.9281C0 26.2779 7.2494 33.8562 16.1934 33.8562C21.0783 33.8562 25.4492 31.5855 28.4172 28.0078H46.4147C74.4804 28.0078 97.3097 51.8764 97.3097 81.212C97.3097 110.548 74.4804 134.413 46.4147 134.413H20.8263L92.584 209.43C92.5575 209.825 92.5277 210.224 92.5277 210.626C92.5277 219.976 99.7771 227.554 108.721 227.554C117.665 227.554 124.914 219.976 124.914 210.626C124.914 201.279 117.665 193.698 108.721 193.698Z" fill="#0D3050"/>
</svg>
